<?xml version="1.0" encoding="UTF-8"?>
<svg xmlns="http://www.w3.org/2000/svg" width="800" height="450" viewBox="0 0 800 450" role="img">
  <defs>
    <linearGradient id="sky" x1="0" y1="0" x2="0" y2="1">
      <stop offset="0%" stop-color="#F0E8FF"/>
      <stop offset="100%" stop-color="#FFE8F4"/>
    </linearGradient>
  </defs>
  <rect width="800" height="450" fill="url(#sky)"/>
  
      <path d="M400 80 L420 140 L480 140 L430 175 L450 240 L400 200 L350 240 L370 175 L320 140 L380 140 Z" fill="#FFE66D"/>
      <rect x="250" y="250" width="100" height="120" rx="8" fill="#6C8CFF"/>
      <path d="M240 250 L300 180 L360 250 Z" fill="#FF8FAB"/>
      <rect x="285" y="300" width="30" height="70" rx="4" fill="#FFE8D0"/>
      <circle cx="550" cy="280" r="50" fill="#FFD4B8"/>
      <path d="M510 250 Q550 200 590 250" fill="#B388FF"/>
      <circle cx="535" cy="270" r="5" fill="#5A4A42"/>
      <circle cx="565" cy="270" r="5" fill="#5A4A42"/>
      <path d="M535 295 q15 12 30 0" fill="none" stroke="#C47A5A" stroke-width="3"/>
      <ellipse cx="550" cy="370" rx="45" ry="50" fill="#FF8FAB"/>
      <circle cx="180" cy="200" r="25" fill="#7DCE82" opacity="0.7"/>
      <circle cx="650" cy="160" r="20" fill="#4ECDC4" opacity="0.7"/>
    
</svg>