<?xml version="1.0" encoding="UTF-8"?>
<svg xmlns="http://www.w3.org/2000/svg" width="800" height="450" viewBox="0 0 800 450" role="img">
  <defs>
    <linearGradient id="bg" x1="0" y1="0" x2="0" y2="1">
      <stop offset="0%" stop-color="#E8F8FF"/>
      <stop offset="100%" stop-color="#FFF5E8"/>
    </linearGradient>
  </defs>
  <rect width="800" height="450" fill="url(#bg)"/>
  
      <ellipse cx="400" cy="400" rx="280" ry="38" fill="#E0E8F0" opacity="0.75"/>
      <circle cx="300" cy="220" r="42" fill="#FFD4B8"/>
      <circle cx="500" cy="220" r="42" fill="#E8B898"/>
      <ellipse cx="300" cy="310" rx="46" ry="52" fill="#6C8CFF"/>
      <ellipse cx="500" cy="310" rx="46" ry="52" fill="#7DCE82"/>
      <circle cx="288" cy="208" r="5" fill="#5A4A42"/>
      <circle cx="312" cy="208" r="5" fill="#5A4A42"/>
      <circle cx="488" cy="208" r="5" fill="#5A4A42"/>
      <circle cx="512" cy="208" r="5" fill="#5A4A42"/>
      <path d="M288 232 q12 8 24 0" fill="none" stroke="#C47A5A" stroke-width="3"/>
      <path d="M488 232 q12 8 24 0" fill="none" stroke="#C47A5A" stroke-width="3"/>
      <circle cx="400" cy="160" r="34" fill="#FFE66D"/>
      <path d="M388 145 q12 -14 24 0 q0 14 -12 18" fill="none" stroke="#5A4A42" stroke-width="5" stroke-linecap="round"/>
      <circle cx="400" cy="178" r="4" fill="#5A4A42"/>
      <path d="M340 250 Q400 280 460 250" fill="none" stroke="#F2C14E" stroke-width="7" stroke-linecap="round"/>
    
</svg>