<?xml version="1.0" encoding="UTF-8"?>
<svg xmlns="http://www.w3.org/2000/svg" width="800" height="450" viewBox="0 0 800 450" role="img">
  <defs>
    <linearGradient id="sky" x1="0" y1="0" x2="0" y2="1">
      <stop offset="0%" stop-color="#E8F0FF"/>
      <stop offset="100%" stop-color="#FFF5E8"/>
    </linearGradient>
  </defs>
  <rect width="800" height="450" fill="url(#sky)"/>
  
      <rect x="200" y="180" width="100" height="120" rx="8" fill="#6C8CFF"/>
      <rect x="215" y="200" width="70" height="10" rx="3" fill="#FFF" opacity="0.7"/>
      <rect x="215" y="225" width="70" height="10" rx="3" fill="#FFF" opacity="0.7"/>
      <rect x="215" y="250" width="50" height="10" rx="3" fill="#FFF" opacity="0.7"/>
      <circle cx="450" cy="200" r="40" fill="#FFD4B8"/>
      <ellipse cx="450" cy="300" rx="45" ry="55" fill="#FF8FAB"/>
      <circle cx="430" cy="190" r="5" fill="#5A4A42"/>
      <circle cx="470" cy="190" r="5" fill="#5A4A42"/>
      <path d="M430 215 q20 12 40 0" fill="none" stroke="#C47A5A" stroke-width="3"/>
      <circle cx="580" cy="250" r="30" fill="#FFE66D"/>
      <circle cx="650" cy="280" r="25" fill="#7DCE82"/>
      <rect x="560" y="320" width="50" height="50" rx="8" fill="#FF6B6B"/>
      <polygon points="640,320 680,320 660,370" fill="#4ECDC4"/>
    
</svg>