<?xml version="1.0" encoding="UTF-8"?>
<svg xmlns="http://www.w3.org/2000/svg" width="800" height="450" viewBox="0 0 800 450" role="img">
  <defs>
    <linearGradient id="sky" x1="0" y1="0" x2="0" y2="1">
      <stop offset="0%" stop-color="#FFF0E6"/>
      <stop offset="100%" stop-color="#E8F8F5"/>
    </linearGradient>
  </defs>
  <rect width="800" height="450" fill="url(#sky)"/>
  
      <ellipse cx="400" cy="380" rx="280" ry="40" fill="#D4F0E8" opacity="0.8"/>
      <ellipse cx="280" cy="300" rx="90" ry="55" fill="#FFD4B8"/>
      <circle cx="250" cy="230" r="48" fill="#FFD4B8"/>
      <circle cx="235" cy="220" r="5" fill="#5A4A42"/>
      <circle cx="265" cy="220" r="5" fill="#5A4A42"/>
      <path d="M235 245 q15 12 30 0" fill="none" stroke="#C47A5A" stroke-width="3" stroke-linecap="round"/>
      <circle cx="210" cy="210" r="10" fill="#FFB8A8" opacity="0.7"/>
      <circle cx="290" cy="210" r="10" fill="#FFB8A8" opacity="0.7"/>
      <circle cx="420" cy="250" r="32" fill="#FF8FAB"/>
      <circle cx="480" cy="230" r="28" fill="#6C8CFF"/>
      <circle cx="520" cy="280" r="24" fill="#7DCE82"/>
      <circle cx="450" cy="310" r="20" fill="#FFE66D"/>
      <ellipse cx="600" cy="260" rx="50" ry="70" fill="#B8D4F0"/>
      <circle cx="600" cy="180" r="36" fill="#FFD4B8"/>
      <path d="M560 280 q-40 40 -20 80" fill="none" stroke="#B8D4F0" stroke-width="18" stroke-linecap="round"/>
    
</svg>